# xmcd
# Track frame offsets:
# 150
# 12519
# 22939
# 34334
# 46628
# 57273
# 68668
# 79687
# 94981
# 105775
# 116044
# 129463
# 138307
# 153977
# 169872
# 180141
# 191536
# 204356
# 214250
# 228645
# 239215
#
# Disc length: 3322 seconds
# Revision: 1
# Processed by: cddbd v1.5.2PL0 Copyright (c) Steve Scherf et al.
# Submitted via: VisiTrax 2.11.3.279 - For more info visit www.synapsa.com
#
DISCID=160cf815
DTITLE=Various Artist - Christmas With The Rat Pack
DYEAR=2002
DGENRE=Christmas
TTITLE0=Dean Martin - I've Got My Love To Keep Me Warm
TTITLE1=Frank Sinatra - Mistletoe And Holly
TTITLE2=Sammy Davis Jr. - Christmas Time All Over The World [Previously Unreco
TTITLE2=rded]
TTITLE3=Frank Sinatra - The First Noel
TTITLE4=Dean Martin - Baby, It's Cold Outside
TTITLE5=Frank Sinatra - I Believe
TTITLE6=Dean Martin - Silver Bells
TTITLE7=Sammy Davis Jr. - The Christmas Song
TTITLE8=Frank Sinatra - Hark! The Herald Angels Sing
TTITLE9=Dean Martin - Rudolph, The Red-Nosed Reindeer
TTITLE10=Frank Sinatra - The Christmas Waltz
TTITLE11=Dean Martin - Let It Snow! Let It Snow! Let It Snow!
TTITLE12=Frank Sinatra - Have Yourself A Merry Little Christmas
TTITLE13=Dean Martin - Peace On Earth/Silent Night
TTITLE14=Sammy Davis Jr. - Jingle Bells
TTITLE15=Dean Martin - White Christmas
TTITLE16=Frank Sinatra - It Came Upon A Midnight Clear
TTITLE17=Dean Martin - Winter Wonderland
TTITLE18=Frank Sinatra - I'll Be Home For Christmas (If Only In My Dreams)
TTITLE19=Frank Sinatra And Dean Martin - A Marshmallow World [live]
TTITLE20=Frank Sinatra And Dean Martin - Auld Lang Syne [live]
EXTD=Capitoal Records Inc.
EXTT0=
EXTT1=
EXTT2=
EXTT3=
EXTT4=
EXTT5=
EXTT6=
EXTT7=
EXTT8=
EXTT9=
EXTT10=
EXTT11=
EXTT12=
EXTT13=
EXTT14=
EXTT15=
EXTT16=
EXTT17=
EXTT18=
EXTT19=
EXTT20=
PLAYORDER=
